<svg width="93" height="30" viewBox="0 0 93 30" fill="none" xmlns="http://www.w3.org/2000/svg">
<path d="M1.49624 29.9467H1V27.0533H1.50778L3.79855 29.3528H3.82741V27.0533H4.32364V29.9467H3.81587L1.53086 27.6434H1.49624V29.9467Z" fill="#484848"/>
<path d="M5.73374 28.5952V29.6345H7.95527V29.9467H5.2375V27.0533H7.88026V27.3655H5.73374V28.2868H7.75909V28.5952H5.73374Z" fill="#484848"/>
<path d="M10.2211 29.9467H9.71911V27.3655H8.35734V27.0533H11.5771V27.3655H10.2211V29.9467Z" fill="#484848"/>
<path d="M12.9707 29.9467L11.7821 27.0533H12.3129L13.2419 29.349H13.2765L14.2344 27.0533H14.7537L15.7173 29.349H15.7462L16.6752 27.0533H17.2061L16.0174 29.9467H15.4981L14.5114 27.6244H14.4767L13.49 29.9467H12.9707Z" fill="#484848"/>
<path d="M19.4576 30C19.0652 30 18.7228 29.9391 18.4305 29.8173C18.1381 29.6929 17.9131 29.5178 17.7554 29.2919C17.5976 29.066 17.5188 28.802 17.5188 28.5C17.5188 28.1954 17.5976 27.9302 17.7554 27.7043C17.9131 27.4784 18.1381 27.3046 18.4305 27.1827C18.7228 27.0609 19.0652 27 19.4576 27C19.8499 27 20.1923 27.0609 20.4847 27.1827C20.777 27.3046 21.0021 27.4784 21.1598 27.7043C21.3175 27.9302 21.3964 28.1954 21.3964 28.5C21.3964 28.802 21.3175 29.066 21.1598 29.2919C21.0021 29.5178 20.777 29.6929 20.4847 29.8173C20.1923 29.9391 19.8499 30 19.4576 30ZM19.4576 29.6878C19.7422 29.6878 19.9923 29.6396 20.2077 29.5431C20.4231 29.4467 20.5885 29.3096 20.7039 29.132C20.8232 28.9518 20.8828 28.7411 20.8828 28.5C20.8828 28.2589 20.8232 28.0495 20.7039 27.8718C20.5885 27.6916 20.4231 27.5533 20.2077 27.4569C19.9923 27.3604 19.7422 27.3122 19.4576 27.3122C19.1691 27.3122 18.9171 27.3604 18.7017 27.4569C18.4863 27.5533 18.3208 27.6916 18.2054 27.8718C18.09 28.0495 18.0323 28.2589 18.0323 28.5C18.0323 28.7411 18.09 28.9518 18.2054 29.132C18.3208 29.3096 18.4863 29.4467 18.7017 29.5431C18.9171 29.6396 19.1691 29.6878 19.4576 29.6878Z" fill="#484848"/>
<path d="M25.2689 29.9467H24.6861L23.5898 28.7208H23.4859H22.6781V29.9467H22.1819V27.0533H23.434C23.961 27.0533 24.3669 27.1269 24.6515 27.2741C24.9362 27.4213 25.0785 27.6294 25.0785 27.8985C25.0785 28.1015 24.9939 28.269 24.8246 28.401C24.6592 28.533 24.4188 28.6244 24.1034 28.6751L25.2689 29.9467ZM23.3936 28.4086C23.7706 28.4086 24.0591 28.3642 24.2592 28.2754C24.463 28.1865 24.565 28.0609 24.565 27.8985C24.565 27.7284 24.463 27.5977 24.2592 27.5063C24.0591 27.4124 23.7706 27.3655 23.3936 27.3655H22.6781V28.4086H23.3936Z" fill="#484848"/>
<path d="M29.0645 29.9467H28.4183L26.5718 28.5609L26.3352 28.7132V29.9467H25.839V27.0533H26.3352V28.2906L28.2278 27.0533H28.903L26.9238 28.3325L29.0645 29.9467Z" fill="#484848"/>
<path d="M33.2175 29.9467H32.7154V27.3655H31.3537V27.0533H34.5735V27.3655H33.2175V29.9467Z" fill="#484848"/>
<path d="M35.6555 28.5952V29.6345H37.877V29.9467H35.1592V27.0533H37.802V27.3655H35.6555V28.2868H37.6808V28.5952H35.6555Z" fill="#484848"/>
<path d="M41.8527 29.4937C41.6988 29.651 41.493 29.7754 41.2353 29.8668C40.9776 29.9556 40.691 30 40.3755 30C39.9832 30 39.637 29.9365 39.3369 29.8096C39.0369 29.6827 38.8041 29.5051 38.6387 29.2766C38.4771 29.0482 38.3964 28.7843 38.3964 28.4848C38.3964 28.1904 38.4771 27.9315 38.6387 27.7081C38.8041 27.4822 39.0369 27.3084 39.3369 27.1865C39.637 27.0622 39.9832 27 40.3755 27C40.691 27 40.9795 27.0457 41.2411 27.1371C41.5027 27.2284 41.7065 27.3515 41.8527 27.5063L41.4546 27.6891C41.3392 27.5749 41.1795 27.4835 40.9756 27.415C40.7756 27.3464 40.5737 27.3122 40.3698 27.3122C40.0813 27.3122 39.8274 27.3617 39.6081 27.4607C39.3888 27.5571 39.2177 27.6942 39.0946 27.8718C38.9753 28.0495 38.9157 28.2538 38.9157 28.4848C38.9157 28.7208 38.9753 28.9302 39.0946 29.1129C39.2177 29.2931 39.3888 29.434 39.6081 29.5355C39.8274 29.6371 40.0813 29.6878 40.3698 29.6878C40.5737 29.6878 40.7737 29.6536 40.9699 29.585C41.1661 29.514 41.3276 29.4201 41.4546 29.3033L41.8527 29.4937Z" fill="#484848"/>
<path d="M45.3213 28.2982V27.0533H45.8176V29.9467H45.3213V28.6066H43.0767V29.9467H42.5805V27.0533H43.0767V28.2982H45.3213Z" fill="#484848"/>
<path d="M47.2241 29.9467H46.7278V27.0533H47.2356L49.5264 29.3528H49.5552V27.0533H50.0515V29.9467H49.5437L47.2587 27.6434H47.2241V29.9467Z" fill="#484848"/>
<path d="M52.7772 30C52.3848 30 52.0424 29.9391 51.7501 29.8173C51.4577 29.6929 51.2327 29.5178 51.075 29.2919C50.9172 29.066 50.8384 28.802 50.8384 28.5C50.8384 28.1954 50.9172 27.9302 51.075 27.7043C51.2327 27.4784 51.4577 27.3046 51.7501 27.1827C52.0424 27.0609 52.3848 27 52.7772 27C53.1696 27 53.5119 27.0609 53.8043 27.1827C54.0966 27.3046 54.3217 27.4784 54.4794 27.7043C54.6371 27.9302 54.716 28.1954 54.716 28.5C54.716 28.802 54.6371 29.066 54.4794 29.2919C54.3217 29.5178 54.0966 29.6929 53.8043 29.8173C53.5119 29.9391 53.1696 30 52.7772 30ZM52.7772 29.6878C53.0618 29.6878 53.3119 29.6396 53.5273 29.5431C53.7427 29.4467 53.9081 29.3096 54.0235 29.132C54.1428 28.9518 54.2024 28.7411 54.2024 28.5C54.2024 28.2589 54.1428 28.0495 54.0235 27.8718C53.9081 27.6916 53.7427 27.5533 53.5273 27.4569C53.3119 27.3604 53.0618 27.3122 52.7772 27.3122C52.4887 27.3122 52.2367 27.3604 52.0213 27.4569C51.8059 27.5533 51.6405 27.6916 51.525 27.8718C51.4096 28.0495 51.3519 28.2589 51.3519 28.5C51.3519 28.7411 51.4096 28.9518 51.525 29.132C51.6405 29.3096 51.8059 29.4467 52.0213 29.5431C52.2367 29.6396 52.4887 29.6878 52.7772 29.6878Z" fill="#484848"/>
<path d="M55.9977 27.0533V29.6345H58.1789V29.9467H55.5015V27.0533H55.9977Z" fill="#484848"/>
<path d="M60.3506 30C59.9582 30 59.6158 29.9391 59.3235 29.8173C59.0311 29.6929 58.8061 29.5178 58.6484 29.2919C58.4907 29.066 58.4118 28.802 58.4118 28.5C58.4118 28.1954 58.4907 27.9302 58.6484 27.7043C58.8061 27.4784 59.0311 27.3046 59.3235 27.1827C59.6158 27.0609 59.9582 27 60.3506 27C60.743 27 61.0853 27.0609 61.3777 27.1827C61.67 27.3046 61.8951 27.4784 62.0528 27.7043C62.2105 27.9302 62.2894 28.1954 62.2894 28.5C62.2894 28.802 62.2105 29.066 62.0528 29.2919C61.8951 29.5178 61.67 29.6929 61.3777 29.8173C61.0853 29.9391 60.743 30 60.3506 30ZM60.3506 29.6878C60.6353 29.6878 60.8853 29.6396 61.1007 29.5431C61.3161 29.4467 61.4816 29.3096 61.597 29.132C61.7162 28.9518 61.7758 28.7411 61.7758 28.5C61.7758 28.2589 61.7162 28.0495 61.597 27.8718C61.4816 27.6916 61.3161 27.5533 61.1007 27.4569C60.8853 27.3604 60.6353 27.3122 60.3506 27.3122C60.0621 27.3122 59.8101 27.3604 59.5947 27.4569C59.3793 27.5533 59.2139 27.6916 59.0985 27.8718C58.983 28.0495 58.9253 28.2589 58.9253 28.5C58.9253 28.7411 58.983 28.9518 59.0985 29.132C59.2139 29.3096 59.3793 29.4467 59.5947 29.5431C59.8101 29.6396 60.0621 29.6878 60.3506 29.6878Z" fill="#484848"/>
<path d="M64.9271 27.3122C64.6348 27.3122 64.377 27.3617 64.1539 27.4607C63.9347 27.5571 63.7635 27.6954 63.6404 27.8756C63.5211 28.0533 63.4615 28.2614 63.4615 28.5C63.4615 28.7411 63.5192 28.9518 63.6346 29.132C63.7539 29.3096 63.9212 29.4467 64.1366 29.5431C64.352 29.6396 64.604 29.6878 64.8925 29.6878C65.1195 29.6878 65.3195 29.6574 65.4926 29.5964C65.6696 29.5355 65.8311 29.4505 65.9773 29.3414V28.7284H64.9387V28.4162H66.4793V29.4556C66.0485 29.8185 65.5195 30 64.8925 30C64.4963 30 64.152 29.9391 63.8596 29.8173C63.5673 29.6954 63.3423 29.5216 63.1845 29.2957C63.0268 29.0698 62.948 28.8046 62.948 28.5C62.948 28.1954 63.0268 27.9302 63.1845 27.7043C63.3461 27.4784 63.575 27.3046 63.8712 27.1827C64.1712 27.0609 64.5232 27 64.9271 27C65.2387 27 65.5215 27.047 65.7754 27.1409C66.0331 27.2322 66.2408 27.3566 66.3985 27.514L65.9946 27.7005C65.8638 27.5838 65.7042 27.4898 65.5157 27.4188C65.3272 27.3477 65.131 27.3122 64.9271 27.3122Z" fill="#484848"/>
<path d="M68.065 28.7779L66.5878 27.0533H67.1649L68.3016 28.4429H68.3304L69.4672 27.0533H70.0442L68.567 28.7779V29.9467H68.065V28.7779Z" fill="#484848"/>
<path d="M73.9298 30C73.5913 30 73.2836 29.9505 73.0066 29.8515C72.7296 29.75 72.5104 29.6066 72.3488 29.4213L72.7758 29.25C72.9027 29.3947 73.0643 29.5038 73.2605 29.5774C73.4567 29.651 73.6817 29.6878 73.9356 29.6878C74.1203 29.6878 74.2876 29.6675 74.4376 29.6269C74.5876 29.5838 74.705 29.5254 74.7896 29.4518C74.8742 29.3782 74.9165 29.2957 74.9165 29.2043C74.9165 29.1079 74.8781 29.0266 74.8011 28.9607C74.7281 28.8947 74.6127 28.8376 74.4549 28.7893C74.3011 28.7386 74.0914 28.6878 73.826 28.6371C73.5375 28.5812 73.3009 28.5266 73.1162 28.4734C72.9316 28.4175 72.7758 28.3363 72.6489 28.2297C72.5219 28.1231 72.4584 27.9822 72.4584 27.8071C72.4584 27.6523 72.52 27.514 72.6431 27.3921C72.77 27.2678 72.9451 27.1713 73.1682 27.1028C73.3951 27.0343 73.6548 27 73.9472 27C74.2741 27 74.5569 27.0444 74.7954 27.1332C75.0339 27.2221 75.2301 27.3477 75.3839 27.5102L74.9916 27.6967C74.8646 27.5774 74.7088 27.4835 74.5242 27.415C74.3434 27.3464 74.1472 27.3122 73.9356 27.3122C73.7548 27.3122 73.5894 27.3338 73.4394 27.3769C73.2932 27.4175 73.1778 27.4734 73.0932 27.5444C73.0085 27.6155 72.9662 27.6942 72.9662 27.7805C72.9662 27.8947 73.0143 27.9886 73.1105 28.0622C73.2066 28.1332 73.3278 28.1891 73.474 28.2297C73.6202 28.2678 73.8164 28.3084 74.0626 28.3515C74.3395 28.4023 74.5742 28.4581 74.7665 28.519C74.9589 28.5799 75.1166 28.665 75.2397 28.7741C75.3628 28.8832 75.4243 29.0228 75.4243 29.1929C75.4243 29.3553 75.3628 29.4975 75.2397 29.6193C75.1166 29.7411 74.9416 29.835 74.7146 29.901C74.4915 29.967 74.2299 30 73.9298 30Z" fill="#484848"/>
<path d="M77.5422 29.9467H77.0402V27.3655H75.6784V27.0533H78.8982V27.3655H77.5422V29.9467Z" fill="#484848"/>
<path d="M81.0534 29.6878C81.3843 29.6878 81.6459 29.6168 81.8382 29.4746C82.0305 29.3299 82.1267 29.1332 82.1267 28.8845V27.0533H82.6287V28.9112C82.6287 29.132 82.5652 29.3249 82.4383 29.4898C82.3113 29.6523 82.1286 29.7779 81.8901 29.8668C81.6516 29.9556 81.3727 30 81.0534 30C80.7342 30 80.4553 29.9556 80.2168 29.8668C79.9821 29.7779 79.8013 29.6523 79.6744 29.4898C79.5474 29.3249 79.4839 29.132 79.4839 28.9112V27.0533H79.9802V28.8693C79.9802 29.1206 80.0764 29.3198 80.2687 29.467C80.461 29.6142 80.7226 29.6878 81.0534 29.6878Z" fill="#484848"/>
<path d="M83.5411 29.9467V27.0533H84.9318C85.3818 27.0533 85.7646 27.1117 86.08 27.2284C86.3993 27.3452 86.6417 27.5127 86.8071 27.731C86.9725 27.9467 87.0552 28.203 87.0552 28.5C87.0552 28.797 86.9686 29.0546 86.7955 29.2728C86.6224 29.4886 86.3685 29.6548 86.0339 29.7716C85.703 29.8883 85.303 29.9467 84.8337 29.9467H83.5411ZM84.8337 29.6345C85.3838 29.6345 85.805 29.5368 86.0973 29.3414C86.3897 29.1459 86.5359 28.8655 86.5359 28.5C86.5359 28.1345 86.3935 27.8541 86.1089 27.6586C85.8242 27.4632 85.4145 27.3655 84.8798 27.3655H84.0374V29.6345H84.8337Z" fill="#484848"/>
<path d="M88.3369 27.0533V29.9467H87.8406V27.0533H88.3369Z" fill="#484848"/>
<path d="M91.0612 30C90.6688 30 90.3265 29.9391 90.0341 29.8173C89.7418 29.6929 89.5167 29.5178 89.359 29.2919C89.2013 29.066 89.1224 28.802 89.1224 28.5C89.1224 28.1954 89.2013 27.9302 89.359 27.7043C89.5167 27.4784 89.7418 27.3046 90.0341 27.1827C90.3265 27.0609 90.6688 27 91.0612 27C91.4536 27 91.796 27.0609 92.0883 27.1827C92.3807 27.3046 92.6057 27.4784 92.7634 27.7043C92.9211 27.9302 93 28.1954 93 28.5C93 28.802 92.9211 29.066 92.7634 29.2919C92.6057 29.5178 92.3807 29.6929 92.0883 29.8173C91.796 29.9391 91.4536 30 91.0612 30ZM91.0612 29.6878C91.3459 29.6878 91.5959 29.6396 91.8113 29.5431C92.0268 29.4467 92.1922 29.3096 92.3076 29.132C92.4268 28.9518 92.4865 28.7411 92.4865 28.5C92.4865 28.2589 92.4268 28.0495 92.3076 27.8718C92.1922 27.6916 92.0268 27.5533 91.8113 27.4569C91.5959 27.3604 91.3459 27.3122 91.0612 27.3122C90.7727 27.3122 90.5207 27.3604 90.3053 27.4569C90.0899 27.5533 89.9245 27.6916 89.8091 27.8718C89.6937 28.0495 89.636 28.2589 89.636 28.5C89.636 28.7411 89.6937 28.9518 89.8091 29.132C89.9245 29.3096 90.0899 29.4467 90.3053 29.5431C90.5207 29.6396 90.7727 29.6878 91.0612 29.6878Z" fill="#484848"/>
<path d="M9.68835 17.1267C11.4887 17.1267 12.9065 16.6913 13.9418 15.8206C14.9995 14.9335 15.5284 13.7342 15.5284 12.2228V0.344999H19.3767V12.3953C19.3767 13.8903 18.9829 15.1963 18.1952 16.3134C17.4075 17.4142 16.2823 18.2602 14.8195 18.8516C13.3566 19.4431 11.6463 19.7388 9.68835 19.7388C7.73042 19.7388 6.02005 19.4431 4.55724 18.8516C3.09442 18.2602 1.96918 17.4142 1.18151 16.3134C0.393835 15.1963 0 13.8903 0 12.3953V0.344999H3.81458V12.1242C3.81458 13.652 4.34344 14.8677 5.40117 15.7713C6.4589 16.6749 7.88796 17.1267 9.68835 17.1267Z" fill="#484848"/>
<path d="M28.2425 10.8428V16.8063H41.0365V19.3938H24.4279V0.344999H40.5976V2.93248H28.2425V8.27994H39.9225V10.8428H28.2425Z" fill="#484848"/>
<path d="M48.8793 19.3938H45.0647V0.344999H48.778L61.3357 14.2681H61.5045V0.344999H65.3191V19.3938H61.707L49.0818 5.47067H48.8793V19.3938Z" fill="#484848"/>
<path d="M81.32 19.7388C78.957 19.7388 76.8978 19.3363 75.1424 18.5313C73.3871 17.7263 72.0255 16.5845 71.0578 15.106C70.1126 13.611 69.64 11.8696 69.64 9.88171C69.64 7.87744 70.1126 6.13603 71.0578 4.65747C72.0255 3.16248 73.3871 2.01249 75.1424 1.20749C76.8978 0.402497 78.957 0 81.32 0C83.7055 0 85.776 0.402497 87.5314 1.20749C89.2867 2.01249 90.637 3.16248 91.5822 4.65747C92.5274 6.13603 93.0001 7.87744 93.0001 9.88171C93.0001 11.8696 92.5274 13.611 91.5822 15.106C90.637 16.5845 89.2755 17.7263 87.4976 18.5313C85.7422 19.3363 83.683 19.7388 81.32 19.7388ZM81.32 17.1267C82.8729 17.1267 84.2344 16.8309 85.4047 16.2395C86.5749 15.6481 87.4751 14.8103 88.1052 13.726C88.7579 12.6253 89.0842 11.3438 89.0842 9.88171C89.0842 8.41958 88.7579 7.14638 88.1052 6.0621C87.4751 4.96139 86.5749 4.11533 85.4047 3.5239C84.2344 2.93248 82.8729 2.63677 81.32 2.63677C79.7447 2.63677 78.3719 2.93248 77.2016 3.5239C76.0314 4.11533 75.1312 4.96139 74.5011 6.0621C73.8709 7.14638 73.5558 8.41958 73.5558 9.88171C73.5558 11.3438 73.8709 12.6253 74.5011 13.726C75.1312 14.8103 76.0314 15.6481 77.2016 16.2395C78.3719 16.8309 79.7447 17.1267 81.32 17.1267Z" fill="#484848"/>
<path d="M48.7776 5.50401V0.379517L60.7347 13.6652L58.4572 15.753L49.1571 5.50401H48.7776Z" fill="url(#paint0_linear_22_1009)"/>
<defs>
<linearGradient id="paint0_linear_22_1009" x1="50.4857" y1="3.98564" x2="60.7347" y2="14.9938" gradientUnits="userSpaceOnUse">
<stop stop-color="#424242"/>
<stop offset="1" stop-opacity="0"/>
</linearGradient>
</defs>
</svg>
