<svg width="132" height="28" viewBox="0 0 132 28" fill="none" xmlns="http://www.w3.org/2000/svg">
<path d="M15.445 26.4756C22.6206 26.4756 28.4375 20.7684 28.4375 13.7281C28.4375 6.68793 22.6206 0.980713 15.445 0.980713C8.26937 0.980713 2.45239 6.68793 2.45239 13.7281C2.45239 20.7684 8.26937 26.4756 15.445 26.4756Z" fill="#3076D9"/>
<path d="M14.2082 19.6944C13.9525 19.6944 13.7181 19.5962 13.5051 19.3997C12.0703 18.0708 10.4935 17.149 8.77465 16.6343C8.82674 17.9959 8.85278 18.7516 8.85278 18.9013C8.85278 19.168 8.75808 19.395 8.56867 19.5821C8.37926 19.7646 8.14251 19.8559 7.8584 19.8559C7.57429 19.8559 7.33753 19.7646 7.14812 19.5821C6.95872 19.395 6.86401 19.168 6.86401 18.9013C6.86401 18.5504 6.86875 18.0263 6.87822 17.3291C6.88769 16.6273 6.89242 16.1009 6.89242 15.7499L6.90663 10.0859C6.90663 9.78174 6.99897 9.50567 7.18364 9.25768C7.42513 8.9395 7.75896 8.79678 8.18512 8.82954C9.33576 8.91376 9.92529 8.95821 9.9537 8.96289C10.6166 9.04244 11.1801 9.19919 11.6442 9.43314C13.6661 10.4392 14.677 11.6861 14.677 13.1741C14.677 13.7871 14.4639 14.3298 14.0378 14.8024C13.6163 15.2703 12.9818 15.6657 12.1342 15.9886C13.3891 16.6811 14.3337 17.3876 14.9682 18.1082C15.134 18.2954 15.2168 18.5036 15.2168 18.7329C15.2168 18.9949 15.1174 19.2218 14.9185 19.4137C14.7196 19.6009 14.4829 19.6944 14.2082 19.6944ZM9.65539 10.865C9.61751 10.8603 9.3405 10.8416 8.82437 10.8088V14.5357C8.94275 14.5404 9.04692 14.5427 9.13689 14.5427C10.297 14.5427 11.1564 14.4 11.7152 14.1146C11.9567 13.9929 12.1769 13.8315 12.3757 13.6303C12.5793 13.4291 12.6812 13.277 12.6812 13.1741C12.6812 12.65 12.345 12.1447 11.6726 11.6581C11.0333 11.1995 10.3609 10.9351 9.65539 10.865Z" fill="white"/>
<path d="M24.1023 10.9492C23.8609 11.4405 23.3755 12.5026 22.6463 14.1357C22.0402 15.502 21.5241 16.5735 21.0979 17.3502C20.3592 18.6978 19.9638 19.4114 19.9117 19.4909C19.6324 19.898 19.3104 20.1015 18.9458 20.1015C18.6853 20.1015 18.4557 20.0173 18.2568 19.8489C18.039 19.6617 17.9301 19.4301 17.9301 19.154C17.9301 18.9247 18.4249 17.9608 19.4145 16.2623C19.0499 15.7429 18.5267 14.9545 17.8448 13.897C17.3334 13.1203 16.5829 11.9482 15.5933 10.3807C15.4986 10.2216 15.4512 10.0555 15.4512 9.88234C15.4512 9.61095 15.5578 9.38167 15.7708 9.19451C15.9697 9.02138 16.2017 8.93482 16.4669 8.93482C16.7794 8.93482 17.0635 9.09157 17.3192 9.40507L17.8519 10.2473C17.8851 10.3035 18.2923 10.9866 19.0736 12.2968C19.5661 13.1343 20.0017 13.7964 20.3805 14.283C20.7404 13.5671 21.2589 12.4839 21.936 11.0334C22.0781 10.7105 22.2911 10.2216 22.5753 9.5665C22.7552 9.14538 23.063 8.93482 23.4986 8.93482C23.759 8.93482 23.9887 9.01904 24.1876 9.18749C24.4054 9.36997 24.5143 9.59925 24.5143 9.87532C24.5143 10.0344 24.377 10.3924 24.1023 10.9492Z" fill="white"/>
<path fill-rule="evenodd" clip-rule="evenodd" d="M2.3197 5.71539C3.83741 3.29655 6.01343 1.32059 8.61373 0L9.31543 1.27279C6.95622 2.47094 4.98194 4.26371 3.60495 6.45828C2.22795 8.65285 1.50032 11.1662 1.50032 13.728C1.50032 16.2898 2.22795 18.8032 3.60495 20.9977C4.98194 23.1923 6.95622 24.9851 9.31543 26.1832L8.61373 27.456C6.01343 26.1354 3.83741 24.1594 2.3197 21.7406C0.801983 19.3218 0 16.5516 0 13.728C0 10.9044 0.801983 8.13422 2.3197 5.71539Z" fill="#3076D9"/>
<path fill-rule="evenodd" clip-rule="evenodd" d="M22.2735 0C24.8738 1.32059 27.0498 3.29655 28.5675 5.71539C30.0852 8.13422 30.8872 10.9044 30.8872 13.728C30.8872 16.5516 30.0852 19.3218 28.5675 21.7406C27.0498 24.1594 24.8738 26.1354 22.2735 27.456L21.5718 26.1832C23.931 24.9851 25.9053 23.1923 27.2823 20.9977C28.6593 18.8032 29.3869 16.2898 29.3869 13.728C29.3869 11.1662 28.6593 8.65285 27.2823 6.45828C25.9053 4.26371 23.931 2.47094 21.5718 1.27279L22.2735 0Z" fill="#3076D9"/>
<path d="M47.142 10.5781H45.85V9.09607H41.29V7.93707H45.85V6.34107H47.142V7.93707H51.759V6.34107H53.051V7.93707H57.63V9.09607H53.051V10.5781H51.759V9.09607H47.142V10.5781ZM54.742 19.8881L57.668 19.7741V20.9521L54.742 21.0661V23.6501H53.431V21.1041L41.214 21.5411L41.176 20.3821L43.988 20.2871V12.3261H41.575V11.1671H57.307V12.3261H54.742V19.8881ZM53.431 14.1691V12.3261H45.28V14.1691H53.431ZM53.431 15.2521H45.28V17.1141H53.431V15.2521ZM45.28 18.2351V20.2301L53.431 19.9261V18.2351H45.28ZM76.934 15.3661L76.44 20.8001C76.364 21.3954 76.2183 21.8514 76.003 22.1681C75.8003 22.4847 75.5026 22.7064 75.11 22.8331C74.7173 22.9724 74.1663 23.0421 73.457 23.0421H71.139L70.93 21.8831H73.001C73.5583 21.8831 73.9826 21.8451 74.274 21.7691C74.5653 21.6804 74.7806 21.5284 74.92 21.3131C75.0593 21.0977 75.167 20.7684 75.243 20.3251C75.281 20.1351 75.3443 19.5777 75.433 18.6531C75.5216 17.7157 75.585 16.9937 75.623 16.4871H73.001C72.5323 18.0704 71.8356 19.4257 70.911 20.5531C69.9863 21.6677 68.688 22.7317 67.016 23.7451L66.218 22.7571C67.7886 21.8324 68.9856 20.9077 69.809 19.9831C70.645 19.0457 71.2846 17.8804 71.728 16.4871H69.068C68.4093 17.7917 67.5353 18.9127 66.446 19.8501C65.3566 20.7747 63.881 21.6741 62.019 22.5481L61.354 21.5411C63.0133 20.8191 64.3433 20.0591 65.344 19.2611C66.3573 18.4504 67.149 17.5257 67.719 16.4871H64.793C64.071 17.2851 63.1653 18.0767 62.076 18.8621L61.335 17.8931C63.083 16.7531 64.4636 15.3661 65.477 13.7321H63.995V7.08207H75.642V13.7321H66.826C66.4713 14.3147 66.104 14.8594 65.724 15.3661H76.934ZM74.388 9.89407V8.20307H65.23V9.89407H74.388ZM74.388 10.9391H65.23V12.6491H74.388V10.9391ZM98.29 16.8861L98.385 18.1401L95.668 18.4441V23.5551H94.395V18.5771L87.935 19.2801L87.84 18.0071L94.395 17.3041V6.30307H95.668V17.1711L98.29 16.8861ZM87.65 17.4941C86.9026 16.7721 86.263 16.1704 85.731 15.6891V23.6311H84.553V15.4231C83.793 17.3231 82.9063 18.9697 81.893 20.3631L81.361 18.9761C81.9816 18.1274 82.5516 17.1837 83.071 16.1451C83.603 15.1064 84.0526 14.0424 84.42 12.9531H81.722V11.7561H84.553V9.02007C83.6156 9.17207 82.7543 9.29873 81.969 9.40007L81.855 8.22207C82.767 8.10807 83.8373 7.93707 85.066 7.70907C86.2946 7.48107 87.3206 7.2594 88.144 7.04407L88.372 8.20307C87.6626 8.4184 86.7823 8.61473 85.731 8.79207V11.7561H88.448V12.9531H85.731V14.1691C86.9216 15.1951 87.8336 16.0057 88.467 16.6011L87.65 17.4941ZM92.609 11.7941C91.355 10.6287 90.253 9.65973 89.303 8.88707L90.101 7.95607C90.6963 8.4374 91.8046 9.39373 93.426 10.8251L92.609 11.7941ZM92.115 16.3541C91.2156 15.5687 90.0693 14.5934 88.676 13.4281L89.474 12.4591C90.7786 13.5104 91.9376 14.4731 92.951 15.3471L92.115 16.3541ZM117.936 23.6501C115.783 22.6874 114.066 21.6677 112.787 20.5911C111.558 21.5664 109.741 22.6051 107.334 23.7071L106.669 22.3961C108.898 21.4334 110.602 20.5214 111.78 19.6601C110.45 18.2794 109.373 16.5124 108.55 14.3591V13.1051H112.141V10.2551H108.018V9.00107H112.141V6.18907H113.49V9.00107H118.202V10.2551H113.49V13.1051H117.1V14.3971C116.631 15.5877 116.137 16.6074 115.618 17.4561C115.099 18.3047 114.478 19.0711 113.756 19.7551C114.959 20.7177 116.517 21.5537 118.43 22.2631L117.936 23.6501ZM107.581 15.1191C107.112 15.2964 106.631 15.4611 106.137 15.6131L105.567 15.8031V21.4081C105.567 21.8894 105.51 22.2567 105.396 22.5101C105.282 22.7761 105.086 22.9597 104.807 23.0611C104.528 23.1751 104.129 23.2321 103.61 23.2321H102.166L101.919 21.9021H103.211C103.654 21.9021 103.946 21.8387 104.085 21.7121C104.237 21.5854 104.313 21.3067 104.313 20.8761V16.2401C103.16 16.6327 102.388 16.9051 101.995 17.0571L101.672 15.6701C102.774 15.3281 103.654 15.0431 104.313 14.8151V11.1291H101.957V9.78007H104.313V6.32207H105.567V9.78007H107.486V11.1291H105.567V14.3971C106.226 14.1817 106.84 13.9601 107.41 13.7321L107.581 15.1191ZM109.918 14.3591C110.691 16.2211 111.634 17.7221 112.749 18.8621C113.42 18.2541 113.99 17.5891 114.459 16.8671C114.94 16.1324 115.352 15.2964 115.694 14.3591H109.918Z" fill="black"/>
</svg>
