<svg width="581" height="115" viewBox="0 0 581 115" fill="none" xmlns="http://www.w3.org/2000/svg">
<path d="M332 46V37L353 60.3333L349 64L332.667 46H332Z" fill="url(#paint0_linear_43_594)"/>
<path d="M0 0H581V115H0V0Z" fill="#262626"/>
<path d="M233.62 80.0464H233V76.1885H233.635L236.498 79.2545H236.534V76.1885H237.155V80.0464H236.52L233.664 76.9753H233.62V80.0464Z" fill="white"/>
<path d="M238.917 78.2443V79.6301H241.694V80.0464H238.297V76.1885H241.6V76.6047H238.917V77.8332H241.449V78.2443H238.917Z" fill="white"/>
<path d="M244.526 80.0464H243.899V76.6047H242.197V76.1885H246.221V76.6047H244.526V80.0464Z" fill="white"/>
<path d="M247.963 80.0464L246.478 76.1885H247.141L248.302 79.2494H248.346L249.543 76.1885H250.192L251.397 79.2494H251.433L252.594 76.1885H253.258L251.772 80.0464H251.123L249.889 76.9499H249.846L248.613 80.0464H247.963Z" fill="white"/>
<path d="M256.072 80.1174C255.581 80.1174 255.154 80.0362 254.788 79.8738C254.423 79.708 254.141 79.4745 253.944 79.1733C253.747 78.8721 253.648 78.5201 253.648 78.1174C253.648 77.7113 253.747 77.3577 253.944 77.0565C254.141 76.7553 254.423 76.5235 254.788 76.3611C255.154 76.1986 255.581 76.1174 256.072 76.1174C256.562 76.1174 256.99 76.1986 257.356 76.3611C257.721 76.5235 258.003 76.7553 258.2 77.0565C258.397 77.3577 258.495 77.7113 258.495 78.1174C258.495 78.5201 258.397 78.8721 258.2 79.1733C258.003 79.4745 257.721 79.708 257.356 79.8738C256.99 80.0362 256.562 80.1174 256.072 80.1174ZM256.072 79.7012C256.428 79.7012 256.74 79.6369 257.01 79.5083C257.279 79.3797 257.486 79.197 257.63 78.9601C257.779 78.7198 257.854 78.4389 257.854 78.1174C257.854 77.7959 257.779 77.5168 257.63 77.2799C257.486 77.0396 257.279 76.8552 257.01 76.7266C256.74 76.598 256.428 76.5337 256.072 76.5337C255.711 76.5337 255.396 76.598 255.127 76.7266C254.858 76.8552 254.651 77.0396 254.507 77.2799C254.363 77.5168 254.29 77.7959 254.29 78.1174C254.29 78.4389 254.363 78.7198 254.507 78.9601C254.651 79.197 254.858 79.3797 255.127 79.5083C255.396 79.6369 255.711 79.7012 256.072 79.7012Z" fill="white"/>
<path d="M263.336 80.0464H262.608L261.237 78.4118H261.107H260.098V80.0464H259.477V76.1885H261.043C261.701 76.1885 262.209 76.2866 262.564 76.4829C262.92 76.6792 263.098 76.9567 263.098 77.3154C263.098 77.5861 262.992 77.8095 262.781 77.9855C262.574 78.1614 262.273 78.2833 261.879 78.3509L263.336 80.0464ZM260.992 77.9956C261.463 77.9956 261.824 77.9364 262.074 77.8179C262.329 77.6995 262.456 77.532 262.456 77.3154C262.456 77.0887 262.329 76.9144 262.074 76.7926C261.824 76.6673 261.463 76.6047 260.992 76.6047H260.098V77.9956H260.992Z" fill="white"/>
<path d="M268.081 80.0464H267.273L264.965 78.1986L264.669 78.4017V80.0464H264.049V76.1885H264.669V77.8382L267.035 76.1885H267.879L265.405 77.8941L268.081 80.0464Z" fill="white"/>
<path d="M273.272 80.0464H272.644V76.6047H270.942V76.1885H274.967V76.6047H273.272V80.0464Z" fill="white"/>
<path d="M276.319 78.2443V79.6301H279.096V80.0464H275.699V76.1885H279.002V76.6047H276.319V77.8332H278.851V78.2443H276.319Z" fill="white"/>
<path d="M284.066 79.4423C283.874 79.6521 283.616 79.8179 283.294 79.9398C282.972 80.0582 282.614 80.1174 282.219 80.1174C281.729 80.1174 281.296 80.0328 280.921 79.8636C280.546 79.6944 280.255 79.4575 280.048 79.153C279.846 78.8484 279.745 78.4965 279.745 78.0971C279.745 77.7046 279.846 77.3594 280.048 77.0616C280.255 76.7604 280.546 76.5286 280.921 76.3662C281.296 76.2003 281.729 76.1174 282.219 76.1174C282.614 76.1174 282.974 76.1783 283.301 76.3002C283.628 76.422 283.883 76.5861 284.066 76.7926L283.568 77.0362C283.424 76.8839 283.224 76.7621 282.97 76.6707C282.72 76.5794 282.467 76.5337 282.212 76.5337C281.852 76.5337 281.534 76.5997 281.26 76.7316C280.986 76.8602 280.772 77.043 280.618 77.2799C280.469 77.5168 280.395 77.7892 280.395 78.0971C280.395 78.4118 280.469 78.691 280.618 78.9347C280.772 79.175 280.986 79.3628 281.26 79.4981C281.534 79.6335 281.852 79.7012 282.212 79.7012C282.467 79.7012 282.717 79.6555 282.962 79.5641C283.208 79.4694 283.41 79.3442 283.568 79.1885L284.066 79.4423Z" fill="white"/>
<path d="M288.402 77.8484V76.1885H289.022V80.0464H288.402V78.2596H285.596V80.0464H284.976V76.1885H285.596V77.8484H288.402Z" fill="white"/>
<path d="M290.78 80.0464H290.16V76.1885H290.795L293.658 79.2545H293.694V76.1885H294.314V80.0464H293.68L290.823 76.9753H290.78V80.0464Z" fill="white"/>
<path d="M297.721 80.1174C297.231 80.1174 296.803 80.0362 296.438 79.8738C296.072 79.708 295.791 79.4745 295.594 79.1733C295.397 78.8721 295.298 78.5201 295.298 78.1174C295.298 77.7113 295.397 77.3577 295.594 77.0565C295.791 76.7553 296.072 76.5235 296.438 76.3611C296.803 76.1986 297.231 76.1174 297.721 76.1174C298.212 76.1174 298.64 76.1986 299.005 76.3611C299.371 76.5235 299.652 76.7553 299.849 77.0565C300.046 77.3577 300.145 77.7113 300.145 78.1174C300.145 78.5201 300.046 78.8721 299.849 79.1733C299.652 79.4745 299.371 79.708 299.005 79.8738C298.64 80.0362 298.212 80.1174 297.721 80.1174ZM297.721 79.7012C298.077 79.7012 298.39 79.6369 298.659 79.5083C298.928 79.3797 299.135 79.197 299.279 78.9601C299.428 78.7198 299.503 78.4389 299.503 78.1174C299.503 77.7959 299.428 77.5168 299.279 77.2799C299.135 77.0396 298.928 76.8552 298.659 76.7266C298.39 76.598 298.077 76.5337 297.721 76.5337C297.361 76.5337 297.046 76.598 296.777 76.7266C296.507 76.8552 296.301 77.0396 296.156 77.2799C296.012 77.5168 295.94 77.7959 295.94 78.1174C295.94 78.4389 296.012 78.7198 296.156 78.9601C296.301 79.197 296.507 79.3797 296.777 79.5083C297.046 79.6369 297.361 79.7012 297.721 79.7012Z" fill="white"/>
<path d="M301.747 76.1885V79.6301H304.474V80.0464H301.127V76.1885H301.747Z" fill="white"/>
<path d="M307.188 80.1174C306.698 80.1174 306.27 80.0362 305.904 79.8738C305.539 79.708 305.258 79.4745 305.06 79.1733C304.863 78.8721 304.765 78.5201 304.765 78.1174C304.765 77.7113 304.863 77.3577 305.06 77.0565C305.258 76.7553 305.539 76.5235 305.904 76.3611C306.27 76.1986 306.698 76.1174 307.188 76.1174C307.679 76.1174 308.107 76.1986 308.472 76.3611C308.838 76.5235 309.119 76.7553 309.316 77.0565C309.513 77.3577 309.612 77.7113 309.612 78.1174C309.612 78.5201 309.513 78.8721 309.316 79.1733C309.119 79.4745 308.838 79.708 308.472 79.8738C308.107 80.0362 307.679 80.1174 307.188 80.1174ZM307.188 79.7012C307.544 79.7012 307.857 79.6369 308.126 79.5083C308.395 79.3797 308.602 79.197 308.746 78.9601C308.895 78.7198 308.97 78.4389 308.97 78.1174C308.97 77.7959 308.895 77.5168 308.746 77.2799C308.602 77.0396 308.395 76.8552 308.126 76.7266C307.857 76.598 307.544 76.5337 307.188 76.5337C306.828 76.5337 306.513 76.598 306.243 76.7266C305.974 76.8552 305.767 77.0396 305.623 77.2799C305.479 77.5168 305.407 77.7959 305.407 78.1174C305.407 78.4389 305.479 78.7198 305.623 78.9601C305.767 79.197 305.974 79.3797 306.243 79.5083C306.513 79.6369 306.828 79.7012 307.188 79.7012Z" fill="white"/>
<path d="M312.909 76.5337C312.543 76.5337 312.221 76.5997 311.942 76.7316C311.668 76.8602 311.454 77.0447 311.3 77.2849C311.151 77.5218 311.077 77.7993 311.077 78.1174C311.077 78.4389 311.149 78.7198 311.293 78.9601C311.442 79.197 311.651 79.3797 311.921 79.5083C312.19 79.6369 312.505 79.7012 312.866 79.7012C313.149 79.7012 313.399 79.6606 313.616 79.5794C313.837 79.4981 314.039 79.3848 314.222 79.2393V78.422H312.923V78.0058H314.849V79.3915C314.311 79.8755 313.649 80.1174 312.866 80.1174C312.37 80.1174 311.94 80.0362 311.575 79.8738C311.209 79.7113 310.928 79.4795 310.731 79.1783C310.534 78.8772 310.435 78.5235 310.435 78.1174C310.435 77.7113 310.534 77.3577 310.731 77.0565C310.933 76.7553 311.219 76.5235 311.589 76.3611C311.964 76.1986 312.404 76.1174 312.909 76.1174C313.298 76.1174 313.652 76.18 313.969 76.3052C314.291 76.4271 314.551 76.5929 314.748 76.8027L314.243 77.0514C314.08 76.8958 313.88 76.7706 313.645 76.6758C313.409 76.5811 313.164 76.5337 312.909 76.5337Z" fill="white"/>
<path d="M316.831 78.488L314.985 76.1885H315.706L317.127 78.0413H317.163L318.584 76.1885H319.305L317.459 78.488V80.0464H316.831V78.488Z" fill="white"/>
<path d="M324.162 80.1174C323.739 80.1174 323.354 80.0514 323.008 79.9195C322.662 79.7841 322.388 79.5929 322.186 79.3459L322.72 79.1174C322.878 79.3103 323.08 79.4558 323.326 79.554C323.571 79.6521 323.852 79.7012 324.17 79.7012C324.4 79.7012 324.609 79.6741 324.797 79.62C324.985 79.5624 325.131 79.4846 325.237 79.3865C325.343 79.2883 325.396 79.1783 325.396 79.0565C325.396 78.9279 325.348 78.8196 325.251 78.7316C325.16 78.6437 325.016 78.5675 324.819 78.5032C324.626 78.4355 324.364 78.3679 324.032 78.3002C323.672 78.2257 323.376 78.153 323.145 78.0819C322.914 78.0074 322.72 77.8992 322.561 77.757C322.402 77.6149 322.323 77.4271 322.323 77.1936C322.323 76.9871 322.4 76.8027 322.554 76.6403C322.713 76.4745 322.931 76.3459 323.21 76.2545C323.494 76.1631 323.818 76.1174 324.184 76.1174C324.593 76.1174 324.946 76.1767 325.244 76.2951C325.542 76.4135 325.788 76.5811 325.98 76.7976L325.489 77.0464C325.331 76.8873 325.136 76.7621 324.905 76.6707C324.679 76.5794 324.434 76.5337 324.17 76.5337C323.944 76.5337 323.737 76.5624 323.549 76.62C323.366 76.6741 323.222 76.7486 323.116 76.8433C323.011 76.9381 322.958 77.043 322.958 77.158C322.958 77.3103 323.018 77.4355 323.138 77.5337C323.258 77.6284 323.41 77.7029 323.592 77.757C323.775 77.8078 324.02 77.8619 324.328 77.9195C324.674 77.9871 324.968 78.0616 325.208 78.1428C325.449 78.224 325.646 78.3374 325.8 78.4829C325.953 78.6284 326.03 78.8146 326.03 79.0413C326.03 79.2579 325.953 79.4474 325.8 79.6098C325.646 79.7723 325.427 79.8975 325.143 79.9855C324.864 80.0734 324.537 80.1174 324.162 80.1174Z" fill="white"/>
<path d="M328.678 80.0464H328.05V76.6047H326.348V76.1885H330.373V76.6047H328.678V80.0464Z" fill="white"/>
<path d="M333.067 79.7012C333.48 79.7012 333.807 79.6064 334.048 79.4169C334.288 79.224 334.408 78.9618 334.408 78.6301V76.1885H335.036V78.6657C335.036 78.9601 334.957 79.2173 334.798 79.4372C334.639 79.6538 334.411 79.8213 334.113 79.9398C333.815 80.0582 333.466 80.1174 333.067 80.1174C332.668 80.1174 332.319 80.0582 332.021 79.9398C331.728 79.8213 331.502 79.6538 331.343 79.4372C331.184 79.2173 331.105 78.9601 331.105 78.6657V76.1885H331.725V78.6098C331.725 78.9448 331.845 79.2105 332.086 79.4068C332.326 79.603 332.653 79.7012 333.067 79.7012Z" fill="white"/>
<path d="M336.176 80.0464V76.1885H337.915C338.477 76.1885 338.956 76.2663 339.35 76.422C339.749 76.5777 340.052 76.801 340.259 77.0921C340.466 77.3797 340.569 77.7215 340.569 78.1174C340.569 78.5134 340.461 78.8569 340.244 79.1479C340.028 79.4355 339.711 79.6572 339.292 79.8129C338.879 79.9685 338.379 80.0464 337.792 80.0464H336.176ZM337.792 79.6301C338.48 79.6301 339.006 79.4998 339.372 79.2393C339.737 78.9787 339.92 78.6047 339.92 78.1174C339.92 77.6301 339.742 77.2562 339.386 76.9956C339.03 76.735 338.518 76.6047 337.85 76.6047H336.797V79.6301H337.792Z" fill="white"/>
<path d="M342.171 76.1885V80.0464H341.551V76.1885H342.171Z" fill="white"/>
<path d="M345.577 80.1174C345.086 80.1174 344.658 80.0362 344.293 79.8738C343.927 79.708 343.646 79.4745 343.449 79.1733C343.252 78.8721 343.153 78.5201 343.153 78.1174C343.153 77.7113 343.252 77.3577 343.449 77.0565C343.646 76.7553 343.927 76.5235 344.293 76.3611C344.658 76.1986 345.086 76.1174 345.577 76.1174C346.067 76.1174 346.495 76.1986 346.86 76.3611C347.226 76.5235 347.507 76.7553 347.704 77.0565C347.901 77.3577 348 77.7113 348 78.1174C348 78.5201 347.901 78.8721 347.704 79.1733C347.507 79.4745 347.226 79.708 346.86 79.8738C346.495 80.0362 346.067 80.1174 345.577 80.1174ZM345.577 79.7012C345.932 79.7012 346.245 79.6369 346.514 79.5083C346.783 79.3797 346.99 79.197 347.134 78.9601C347.284 78.7198 347.358 78.4389 347.358 78.1174C347.358 77.7959 347.284 77.5168 347.134 77.2799C346.99 77.0396 346.783 76.8552 346.514 76.7266C346.245 76.598 345.932 76.5337 345.577 76.5337C345.216 76.5337 344.901 76.598 344.632 76.7266C344.362 76.8552 344.156 77.0396 344.011 77.2799C343.867 77.5168 343.795 77.7959 343.795 78.1174C343.795 78.4389 343.867 78.7198 344.011 78.9601C344.156 79.197 344.362 79.3797 344.632 79.5083C344.901 79.6369 345.216 79.7012 345.577 79.7012Z" fill="white"/>
<path d="M244.117 63.4201C246.369 63.4201 248.142 62.8756 249.437 61.7866C250.76 60.6771 251.421 59.1772 251.421 57.2869V42.4315H256.234V57.5026C256.234 59.3724 255.742 61.0059 254.757 62.403C253.771 63.7797 252.364 64.8378 250.535 65.5775C248.705 66.3172 246.566 66.6871 244.117 66.6871C241.668 66.6871 239.529 66.3172 237.7 65.5775C235.87 64.8378 234.463 63.7797 233.478 62.403C232.493 61.0059 232 59.3724 232 57.5026V42.4315H236.771V57.1636C236.771 59.0744 237.432 60.5949 238.755 61.725C240.078 62.8551 241.865 63.4201 244.117 63.4201Z" fill="white"/>
<path d="M267.323 55.5609V63.0194H283.324V66.2556H262.552V42.4315H282.775V45.6676H267.323V52.3556H281.931V55.5609H267.323Z" fill="white"/>
<path d="M293.133 66.2556H288.362V42.4315H293.006L308.712 59.845H308.923V42.4315H313.694V66.2556H309.176L293.386 48.8421H293.133V66.2556Z" fill="white"/>
<path d="M333.706 66.6871C330.751 66.6871 328.175 66.1837 325.98 65.1769C323.784 64.1701 322.081 62.7421 320.871 60.8928C319.689 59.0231 319.098 56.8451 319.098 54.3589C319.098 51.8522 319.689 49.6743 320.871 47.825C322.081 45.9553 323.784 44.517 325.98 43.5102C328.175 42.5034 330.751 42 333.706 42C336.69 42 339.279 42.5034 341.474 43.5102C343.67 44.517 345.359 45.9553 346.541 47.825C347.723 49.6743 348.314 51.8522 348.314 54.3589C348.314 56.8451 347.723 59.0231 346.541 60.8928C345.359 62.7421 343.656 64.1701 341.432 65.1769C339.237 66.1837 336.661 66.6871 333.706 66.6871ZM333.706 63.4201C335.648 63.4201 337.351 63.0503 338.815 62.3106C340.278 61.5709 341.404 60.523 342.192 59.1669C343.008 57.7903 343.417 56.1876 343.417 54.3589C343.417 52.5303 343.008 50.9379 342.192 49.5818C341.404 48.2052 340.278 47.147 338.815 46.4073C337.351 45.6676 335.648 45.2978 333.706 45.2978C331.736 45.2978 330.019 45.6676 328.555 46.4073C327.092 47.147 325.966 48.2052 325.178 49.5818C324.389 50.9379 323.995 52.5303 323.995 54.3589C323.995 56.1876 324.389 57.7903 325.178 59.1669C325.966 60.523 327.092 61.5709 328.555 62.3106C330.019 63.0503 331.736 63.4201 333.706 63.4201Z" fill="white"/>
<path d="M293.006 48.8838V42.4746L307.96 59.0909L305.112 61.702L293.48 48.8838H293.006Z" fill="url(#paint1_linear_43_594)"/>
<defs>
<linearGradient id="paint0_linear_43_594" x1="335" y1="43.3333" x2="353" y2="62.6667" gradientUnits="userSpaceOnUse">
<stop stop-color="#D5D5D5"/>
<stop offset="0.950253" stop-color="white" stop-opacity="0"/>
</linearGradient>
<linearGradient id="paint1_linear_43_594" x1="295.142" y1="46.9847" x2="307.96" y2="60.7525" gradientUnits="userSpaceOnUse">
<stop stop-color="#D5D5D5"/>
<stop offset="0.950253" stop-color="white" stop-opacity="0"/>
</linearGradient>
</defs>
</svg>
