<svg width="110" height="184" viewBox="0 0 110 184" fill="none" xmlns="http://www.w3.org/2000/svg">
<path d="M1.58793 183.929H1V180.071H1.60161L4.31568 183.137H4.34986V180.071H4.9378V183.929H4.33619L1.62895 180.858H1.58793V183.929Z" fill="#484848"/>
<path d="M6.60845 182.127V183.513H9.24049V183.929H6.02052V180.071H9.15161V180.487H6.60845V181.716H9.00805V182.127H6.60845Z" fill="#484848"/>
<path d="M11.925 183.929H11.3303V180.487H9.71685V180.071H13.5316V180.487H11.925V183.929Z" fill="#484848"/>
<path d="M15.1827 183.929L13.7744 180.071H14.4033L15.504 183.132H15.545L16.6799 180.071H17.2952L18.4368 183.132H18.471L19.5717 180.071H20.2007L18.7923 183.929H18.1771L17.008 180.832H16.967L15.798 183.929H15.1827Z" fill="#484848"/>
<path d="M22.8682 184C22.4033 184 21.9977 183.919 21.6513 183.756C21.3049 183.591 21.0383 183.357 20.8515 183.056C20.6646 182.755 20.5712 182.403 20.5712 182C20.5712 181.594 20.6646 181.24 20.8515 180.939C21.0383 180.638 21.3049 180.406 21.6513 180.244C21.9977 180.081 22.4033 180 22.8682 180C23.3331 180 23.7387 180.081 24.0851 180.244C24.4315 180.406 24.6981 180.638 24.885 180.939C25.0718 181.24 25.1653 181.594 25.1653 182C25.1653 182.403 25.0718 182.755 24.885 183.056C24.6981 183.357 24.4315 183.591 24.0851 183.756C23.7387 183.919 23.3331 184 22.8682 184ZM22.8682 183.584C23.2055 183.584 23.5017 183.519 23.7569 183.391C24.0122 183.262 24.2082 183.08 24.3449 182.843C24.4862 182.602 24.5568 182.321 24.5568 182C24.5568 181.679 24.4862 181.399 24.3449 181.162C24.2082 180.922 24.0122 180.738 23.7569 180.609C23.5017 180.481 23.2055 180.416 22.8682 180.416C22.5264 180.416 22.2279 180.481 21.9726 180.609C21.7174 180.738 21.5214 180.922 21.3847 181.162C21.248 181.399 21.1796 181.679 21.1796 182C21.1796 182.321 21.248 182.602 21.3847 182.843C21.5214 183.08 21.7174 183.262 21.9726 183.391C22.2279 183.519 22.5264 183.584 22.8682 183.584Z" fill="#484848"/>
<path d="M29.7534 183.929H29.0629L27.764 182.294H27.641H26.6839V183.929H26.0959V180.071H27.5794C28.2038 180.071 28.6847 180.169 29.0219 180.365C29.3592 180.562 29.5278 180.839 29.5278 181.198C29.5278 181.469 29.4275 181.692 29.227 181.868C29.031 182.044 28.7462 182.166 28.3725 182.234L29.7534 183.929ZM27.5316 181.878C27.9782 181.878 28.32 181.819 28.557 181.701C28.7986 181.582 28.9194 181.415 28.9194 181.198C28.9194 180.971 28.7986 180.797 28.557 180.675C28.32 180.55 27.9782 180.487 27.5316 180.487H26.6839V181.878H27.5316Z" fill="#484848"/>
<path d="M34.2504 183.929H33.4847L31.297 182.081L31.0167 182.284V183.929H30.4288V180.071H31.0167V181.721L33.2591 180.071H34.0589L31.714 181.777L34.2504 183.929Z" fill="#484848"/>
<path d="M39.1707 183.929H38.5759V180.487H36.9625V180.071H40.7772V180.487H39.1707V183.929Z" fill="#484848"/>
<path d="M42.0592 182.127V183.513H44.6912V183.929H41.4713V180.071H44.6024V180.487H42.0592V181.716H44.4588V182.127H42.0592Z" fill="#484848"/>
<path d="M49.4016 183.325C49.2193 183.535 48.9755 183.701 48.6701 183.822C48.3647 183.941 48.0252 184 47.6515 184C47.1866 184 46.7764 183.915 46.4209 183.746C46.0654 183.577 45.7897 183.34 45.5937 183.036C45.4023 182.731 45.3066 182.379 45.3066 181.98C45.3066 181.587 45.4023 181.242 45.5937 180.944C45.7897 180.643 46.0654 180.411 46.4209 180.249C46.7764 180.083 47.1866 180 47.6515 180C48.0252 180 48.367 180.061 48.6769 180.183C48.9869 180.305 49.2284 180.469 49.4016 180.675L48.9299 180.919C48.7932 180.766 48.604 180.645 48.3625 180.553C48.1255 180.462 47.8862 180.416 47.6446 180.416C47.3028 180.416 47.002 180.482 46.7422 180.614C46.4824 180.743 46.2796 180.926 46.1338 181.162C45.9925 181.399 45.9218 181.672 45.9218 181.98C45.9218 182.294 45.9925 182.574 46.1338 182.817C46.2796 183.058 46.4824 183.245 46.7422 183.381C47.002 183.516 47.3028 183.584 47.6446 183.584C47.8862 183.584 48.1232 183.538 48.3556 183.447C48.5881 183.352 48.7795 183.227 48.9299 183.071L49.4016 183.325Z" fill="#484848"/>
<path d="M53.5112 181.731V180.071H54.0991V183.929H53.5112V182.142H50.8518V183.929H50.2638V180.071H50.8518V181.731H53.5112Z" fill="#484848"/>
<path d="M55.7655 183.929H55.1775V180.071H55.7792L58.4932 183.137H58.5274V180.071H59.1153V183.929H58.5137L55.8065 180.858H55.7655V183.929Z" fill="#484848"/>
<path d="M62.3447 184C61.8798 184 61.4742 183.919 61.1278 183.756C60.7814 183.591 60.5148 183.357 60.328 183.056C60.1411 182.755 60.0477 182.403 60.0477 182C60.0477 181.594 60.1411 181.24 60.328 180.939C60.5148 180.638 60.7814 180.406 61.1278 180.244C61.4742 180.081 61.8798 180 62.3447 180C62.8096 180 63.2152 180.081 63.5616 180.244C63.908 180.406 64.1746 180.638 64.3615 180.939C64.5483 181.24 64.6418 181.594 64.6418 182C64.6418 182.403 64.5483 182.755 64.3615 183.056C64.1746 183.357 63.908 183.591 63.5616 183.756C63.2152 183.919 62.8096 184 62.3447 184ZM62.3447 183.584C62.682 183.584 62.9782 183.519 63.2334 183.391C63.4887 183.262 63.6847 183.08 63.8214 182.843C63.9627 182.602 64.0333 182.321 64.0333 182C64.0333 181.679 63.9627 181.399 63.8214 181.162C63.6847 180.922 63.4887 180.738 63.2334 180.609C62.9782 180.481 62.682 180.416 62.3447 180.416C62.0029 180.416 61.7044 180.481 61.4491 180.609C61.1939 180.738 60.9979 180.922 60.8612 181.162C60.7245 181.399 60.6561 181.679 60.6561 182C60.6561 182.321 60.7245 182.602 60.8612 182.843C60.9979 183.08 61.1939 183.262 61.4491 183.391C61.7044 183.519 62.0029 183.584 62.3447 183.584Z" fill="#484848"/>
<path d="M66.1604 180.071V183.513H68.7445V183.929H65.5724V180.071H66.1604Z" fill="#484848"/>
<path d="M71.3176 184C70.8527 184 70.447 183.919 70.1007 183.756C69.7543 183.591 69.4877 183.357 69.3008 183.056C69.1139 182.755 69.0205 182.403 69.0205 182C69.0205 181.594 69.1139 181.24 69.3008 180.939C69.4877 180.638 69.7543 180.406 70.1007 180.244C70.447 180.081 70.8527 180 71.3176 180C71.7824 180 72.1881 180.081 72.5344 180.244C72.8808 180.406 73.1474 180.638 73.3343 180.939C73.5212 181.24 73.6146 181.594 73.6146 182C73.6146 182.403 73.5212 182.755 73.3343 183.056C73.1474 183.357 72.8808 183.591 72.5344 183.756C72.1881 183.919 71.7824 184 71.3176 184ZM71.3176 183.584C71.6548 183.584 71.9511 183.519 72.2063 183.391C72.4615 183.262 72.6575 183.08 72.7942 182.843C72.9355 182.602 73.0061 182.321 73.0061 182C73.0061 181.679 72.9355 181.399 72.7942 181.162C72.6575 180.922 72.4615 180.738 72.2063 180.609C71.9511 180.481 71.6548 180.416 71.3176 180.416C70.9757 180.416 70.6772 180.481 70.422 180.609C70.1667 180.738 69.9708 180.922 69.834 181.162C69.6973 181.399 69.6289 181.679 69.6289 182C69.6289 182.321 69.6973 182.602 69.834 182.843C69.9708 183.08 70.1667 183.262 70.422 183.391C70.6772 183.519 70.9757 183.584 71.3176 183.584Z" fill="#484848"/>
<path d="M76.7398 180.416C76.3934 180.416 76.088 180.482 75.8237 180.614C75.5639 180.743 75.3611 180.927 75.2152 181.168C75.0739 181.404 75.0033 181.682 75.0033 182C75.0033 182.321 75.0717 182.602 75.2084 182.843C75.3497 183.08 75.5479 183.262 75.8032 183.391C76.0584 183.519 76.3569 183.584 76.6987 183.584C76.9676 183.584 77.2046 183.543 77.4097 183.462C77.6194 183.381 77.8108 183.267 77.984 183.122V182.305H76.7534V181.888H78.5788V183.274C78.0683 183.758 77.4416 184 76.6987 184C76.2293 184 75.8214 183.919 75.475 183.756C75.1286 183.594 74.862 183.362 74.6752 183.061C74.4883 182.76 74.3949 182.406 74.3949 182C74.3949 181.594 74.4883 181.24 74.6752 180.939C74.8666 180.638 75.1378 180.406 75.4887 180.244C75.8442 180.081 76.2612 180 76.7398 180C77.1089 180 77.4439 180.063 77.7447 180.188C78.0501 180.31 78.2962 180.475 78.4831 180.685L78.0045 180.934C77.8495 180.778 77.6604 180.653 77.4371 180.558C77.2138 180.464 76.9813 180.416 76.7398 180.416Z" fill="#484848"/>
<path d="M80.4575 182.371L78.7073 180.071H79.391L80.7378 181.924H80.7719L82.1187 180.071H82.8024L81.0522 182.371V183.929H80.4575V182.371Z" fill="#484848"/>
<path d="M87.406 184C87.0049 184 86.6403 183.934 86.3122 183.802C85.984 183.667 85.7243 183.475 85.5328 183.228L86.0387 183C86.1891 183.193 86.3805 183.338 86.613 183.437C86.8454 183.535 87.112 183.584 87.4128 183.584C87.6316 183.584 87.8299 183.557 88.0076 183.503C88.1854 183.445 88.3244 183.367 88.4246 183.269C88.5249 183.171 88.575 183.061 88.575 182.939C88.575 182.81 88.5295 182.702 88.4383 182.614C88.3517 182.526 88.215 182.45 88.0281 182.386C87.8458 182.318 87.5974 182.25 87.283 182.183C86.9411 182.108 86.6608 182.036 86.4421 181.964C86.2233 181.89 86.0387 181.782 85.8883 181.64C85.7379 181.497 85.6627 181.31 85.6627 181.076C85.6627 180.87 85.7356 180.685 85.8815 180.523C86.0319 180.357 86.2393 180.228 86.5036 180.137C86.7725 180.046 87.0801 180 87.4265 180C87.8139 180 88.1489 180.059 88.4315 180.178C88.7141 180.296 88.9465 180.464 89.1288 180.68L88.6639 180.929C88.5135 180.77 88.3289 180.645 88.1102 180.553C87.896 180.462 87.6635 180.416 87.4128 180.416C87.1986 180.416 87.0027 180.445 86.8249 180.503C86.6517 180.557 86.515 180.631 86.4147 180.726C86.3145 180.821 86.2643 180.926 86.2643 181.041C86.2643 181.193 86.3213 181.318 86.4352 181.416C86.5492 181.511 86.6927 181.585 86.8659 181.64C87.0391 181.69 87.2716 181.745 87.5633 181.802C87.8914 181.87 88.1694 181.944 88.3973 182.025C88.6252 182.107 88.812 182.22 88.9579 182.365C89.1037 182.511 89.1767 182.697 89.1767 182.924C89.1767 183.14 89.1037 183.33 88.9579 183.492C88.812 183.655 88.6047 183.78 88.3358 183.868C88.0714 183.956 87.7615 184 87.406 184Z" fill="#484848"/>
<path d="M91.6858 183.929H91.0911V180.487H89.4777V180.071H93.2924V180.487H91.6858V183.929Z" fill="#484848"/>
<path d="M95.8459 183.584C96.2379 183.584 96.5478 183.489 96.7757 183.299C97.0036 183.107 97.1175 182.844 97.1175 182.513V180.071H97.7123V182.548C97.7123 182.843 97.6371 183.1 97.4867 183.32C97.3363 183.536 97.1198 183.704 96.8372 183.822C96.5546 183.941 96.2242 184 95.8459 184C95.4677 184 95.1372 183.941 94.8547 183.822C94.5766 183.704 94.3624 183.536 94.212 183.32C94.0616 183.1 93.9864 182.843 93.9864 182.548V180.071H94.5744V182.492C94.5744 182.827 94.6883 183.093 94.9162 183.289C95.1441 183.486 95.454 183.584 95.8459 183.584Z" fill="#484848"/>
<path d="M98.7933 183.929V180.071H100.441C100.974 180.071 101.428 180.149 101.801 180.305C102.18 180.46 102.467 180.684 102.663 180.975C102.859 181.262 102.957 181.604 102.957 182C102.957 182.396 102.854 182.739 102.649 183.03C102.444 183.318 102.143 183.54 101.747 183.695C101.355 183.851 100.881 183.929 100.325 183.929H98.7933ZM100.325 183.513C100.976 183.513 101.475 183.382 101.822 183.122C102.168 182.861 102.341 182.487 102.341 182C102.341 181.513 102.173 181.139 101.836 180.878C101.498 180.618 101.013 180.487 100.379 180.487H99.3812V183.513H100.325Z" fill="#484848"/>
<path d="M104.475 180.071V183.929H103.887V180.071H104.475Z" fill="#484848"/>
<path d="M107.703 184C107.238 184 106.832 183.919 106.486 183.756C106.14 183.591 105.873 183.357 105.686 183.056C105.499 182.755 105.406 182.403 105.406 182C105.406 181.594 105.499 181.24 105.686 180.939C105.873 180.638 106.14 180.406 106.486 180.244C106.832 180.081 107.238 180 107.703 180C108.168 180 108.573 180.081 108.92 180.244C109.266 180.406 109.533 180.638 109.72 180.939C109.907 181.24 110 181.594 110 182C110 182.403 109.907 182.755 109.72 183.056C109.533 183.357 109.266 183.591 108.92 183.756C108.573 183.919 108.168 184 107.703 184ZM107.703 183.584C108.04 183.584 108.336 183.519 108.592 183.391C108.847 183.262 109.043 183.08 109.18 182.843C109.321 182.602 109.392 182.321 109.392 182C109.392 181.679 109.321 181.399 109.18 181.162C109.043 180.922 108.847 180.738 108.592 180.609C108.336 180.481 108.04 180.416 107.703 180.416C107.361 180.416 107.063 180.481 106.807 180.609C106.552 180.738 106.356 180.922 106.219 181.162C106.083 181.399 106.014 181.679 106.014 182C106.014 182.321 106.083 182.602 106.219 182.843C106.356 183.08 106.552 183.262 106.807 183.391C107.063 183.519 107.361 183.584 107.703 183.584Z" fill="#484848"/>
<path d="M11.4593 169.257C13.5888 169.257 15.2658 168.742 16.4903 167.713C17.7413 166.663 18.3669 165.245 18.3669 163.457V149.408H22.9187V163.661C22.9187 165.429 22.4528 166.974 21.5212 168.295C20.5895 169.597 19.2586 170.598 17.5284 171.298C15.7982 171.997 13.7752 172.347 11.4593 172.347C9.14351 172.347 7.12049 171.997 5.39028 171.298C3.66006 170.598 2.32913 169.597 1.39748 168.295C0.465826 166.974 0 165.429 0 163.661V149.408H4.51186V163.34C4.51186 165.148 5.1374 166.586 6.38847 167.654C7.63955 168.723 9.32984 169.257 11.4593 169.257Z" fill="#484848"/>
<path d="M33.405 161.825V168.878H48.5377V171.939H28.8932V149.408H48.0187V152.469H33.405V158.793H47.2201V161.825H33.405Z" fill="#484848"/>
<path d="M57.8141 171.939H53.3023V149.408H57.6944L72.5476 165.876H72.7472V149.408H77.2591V171.939H72.9868L58.0537 155.471H57.8141V171.939Z" fill="#484848"/>
<path d="M96.1849 172.347C93.39 172.347 90.9544 171.871 88.8781 170.919C86.8018 169.967 85.1914 168.616 84.0468 166.867C82.9288 165.099 82.3698 163.039 82.3698 160.688C82.3698 158.317 82.9288 156.258 84.0468 154.509C85.1914 152.741 86.8018 151.38 88.8781 150.428C90.9544 149.476 93.39 149 96.1849 149C99.0065 149 101.455 149.476 103.532 150.428C105.608 151.38 107.205 152.741 108.323 154.509C109.441 156.258 110 158.317 110 160.688C110 163.039 109.441 165.099 108.323 166.867C107.205 168.616 105.595 169.967 103.492 170.919C101.415 171.871 98.9799 172.347 96.1849 172.347ZM96.1849 169.257C98.0216 169.257 99.632 168.908 101.016 168.208C102.4 167.508 103.465 166.517 104.21 165.235C104.982 163.933 105.368 162.417 105.368 160.688C105.368 158.959 104.982 157.453 104.21 156.17C103.465 154.868 102.4 153.868 101.016 153.168C99.632 152.469 98.0216 152.119 96.1849 152.119C94.3216 152.119 92.6979 152.469 91.3137 153.168C89.9295 153.868 88.8648 154.868 88.1195 156.17C87.3742 157.453 87.0015 158.959 87.0015 160.688C87.0015 162.417 87.3742 163.933 88.1195 165.235C88.8648 166.517 89.9295 167.508 91.3137 168.208C92.6979 168.908 94.3216 169.257 96.1849 169.257Z" fill="#484848"/>
<path d="M57.6939 155.51V149.449L71.8368 165.163L69.1429 167.633L58.1429 155.51H57.6939Z" fill="url(#paint0_linear_51_572)"/>
<path d="M109.509 110L0 100.179L99.6875 0L109.509 110Z" fill="#EDEDED"/>
<path d="M18.6607 18.6607L100.179 0V100.179H0L18.6607 18.6607Z" fill="white"/>
<path fill-rule="evenodd" clip-rule="evenodd" d="M18.7442 18.7442L0.125478 100.079H100.079V0.125478L18.7442 18.7442ZM18.6607 18.6607L0 100.179H100.179V0L18.6607 18.6607Z" fill="url(#paint1_linear_51_572)"/>
<path d="M78.5714 59.4196C78.5714 73.2514 67.3586 84.4643 53.5268 84.4643C39.695 84.4643 28.4822 73.2514 28.4822 59.4196C28.4822 45.5879 39.695 34.375 53.5268 34.375C67.3586 34.375 78.5714 45.5879 78.5714 59.4196Z" fill="#484848"/>
<path d="M67.7678 59.4195C67.7678 67.2847 61.3919 73.6606 53.5268 73.6606C45.6617 73.6606 39.2857 67.2847 39.2857 59.4195C39.2857 51.5544 45.6617 45.1785 53.5268 45.1785C61.3919 45.1785 67.7678 51.5544 67.7678 59.4195Z" fill="white"/>
<path d="M46.1607 36.3392C46.1607 42.8483 40.8841 48.1249 34.375 48.1249C27.8659 48.1249 22.5893 42.8483 22.5893 36.3392C22.5893 29.8301 27.8659 24.5535 34.375 24.5535C40.8841 24.5535 46.1607 29.8301 46.1607 36.3392Z" fill="white"/>
<path d="M41.25 35.8482C41.25 39.9164 37.9521 43.2143 33.8839 43.2143C29.8158 43.2143 26.5179 39.9164 26.5179 35.8482C26.5179 31.7801 29.8158 28.4822 33.8839 28.4822C37.9521 28.4822 41.25 31.7801 41.25 35.8482Z" fill="#484848"/>
<path d="M79.5536 79.5534C79.5536 83.8928 76.0358 87.4106 71.6964 87.4106C67.357 87.4106 63.8393 83.8928 63.8393 79.5534C63.8393 75.2141 67.357 71.6963 71.6964 71.6963C76.0358 71.6963 79.5536 75.2141 79.5536 79.5534Z" fill="white"/>
<path d="M77.5893 80.5356C77.5893 83.2477 75.3907 85.4463 72.6786 85.4463C69.9665 85.4463 67.7679 83.2477 67.7679 80.5356C67.7679 77.8235 69.9665 75.6249 72.6786 75.6249C75.3907 75.6249 77.5893 77.8235 77.5893 80.5356Z" fill="#484848"/>
<defs>
<linearGradient id="paint0_linear_51_572" x1="59.7143" y1="153.714" x2="71.8368" y2="166.735" gradientUnits="userSpaceOnUse">
<stop stop-color="#424242"/>
<stop offset="1" stop-opacity="0"/>
</linearGradient>
<linearGradient id="paint1_linear_51_572" x1="14.2638" y1="16.1043" x2="64.417" y2="69.4784" gradientUnits="userSpaceOnUse">
<stop stop-color="#484848"/>
<stop offset="1" stop-color="#484848" stop-opacity="0"/>
</linearGradient>
</defs>
</svg>
