<svg width="82" height="48" viewBox="0 0 82 48" fill="none" xmlns="http://www.w3.org/2000/svg">
<path d="M11.9454 0.755005C12.7688 2.047 13.8581 3.23134 15.2134 4.308C16.5814 5.38467 18.1078 6.29034 19.7924 7.025L18.7664 8.982C17.7658 8.50067 16.7714 7.93701 15.7834 7.291V8.50701H6.43543V7.367C5.43477 8.06367 4.44677 8.65901 3.47143 9.15301L2.54043 7.139C4.16177 6.36634 5.67543 5.41 7.08143 4.27C8.5001 3.11734 9.58943 1.94567 10.3494 0.755005H11.9454ZM14.7954 6.588C13.3134 5.47334 12.1038 4.289 11.1664 3.03501C10.2544 4.251 9.03843 5.43534 7.51843 6.588H14.7954ZM6.92943 18.254H4.82043V10.407H17.3984V18.292H15.3464V17.323H6.92943V18.254ZM15.3464 15.442V12.345H6.92943V15.442H15.3464Z" fill="black"/>
<path d="M38.9444 15.613C38.9444 16.2717 38.8558 16.772 38.6784 17.114C38.5138 17.4687 38.2414 17.7157 37.8614 17.855C37.4814 17.9943 36.9494 18.064 36.2654 18.064H34.0614L33.6624 16.202H35.6004C35.9551 16.202 36.2148 16.1703 36.3794 16.107C36.5441 16.0437 36.6581 15.936 36.7214 15.784C36.7848 15.632 36.8164 15.3977 36.8164 15.081V3.681H25.8344V18.235H23.7064V1.762H38.9444V15.613ZM26.7274 5.296H35.9614V7.12H26.7274V5.296ZM27.5634 8.678H35.0874V14.986H27.5634V8.678ZM29.4634 10.445V13.238H33.2064V10.445H29.4634Z" fill="black"/>
<path d="M46.9814 7.196C46.0568 7.82934 45.0371 8.43734 43.9224 9.02L42.9914 7.08201C44.7014 6.25867 46.2151 5.32134 47.5324 4.27C48.8624 3.206 49.9708 2.085 50.8574 0.907004H52.4914C53.3528 2.047 54.4421 3.13634 55.7594 4.175C57.0768 5.21367 58.5904 6.15734 60.3004 7.006L59.3694 8.96301C58.3181 8.431 57.2921 7.81667 56.2914 7.12V8.716H46.9814V7.196ZM51.6744 2.997C50.7118 4.251 49.3058 5.53667 47.4564 6.854H55.9114C54.0621 5.524 52.6498 4.23834 51.6744 2.997ZM43.5994 12.535V10.597H59.6544V12.535H54.8474C55.3541 13.0923 56.3231 14.207 57.7544 15.879C58.0584 16.2083 58.3941 16.5947 58.7614 17.038L57.2414 18.463L56.2534 17.266L45.3664 17.817L44.9294 15.974C46.2214 14.986 47.4121 13.8397 48.5014 12.535H43.5994ZM54.6954 15.423C54.1001 14.7263 53.6188 14.1753 53.2514 13.77L54.8094 12.535H51.0664C50.5851 13.1557 50.0848 13.751 49.5654 14.321C49.0461 14.891 48.5838 15.3533 48.1784 15.708L54.6954 15.423Z" fill="black"/>
<path d="M66.5514 4.194C66.4754 3.86467 66.2854 3.263 65.9814 2.389L65.6394 1.306L67.5394 0.831005C68.0334 2.26234 68.3564 3.23767 68.5084 3.757L66.5514 4.194ZM76.0514 8.165V15.442H80.2694V17.475H69.4774V15.442H73.9044V8.165H70.4084V6.09401H73.9044V0.964005H76.0514V6.09401H79.6994V8.165H76.0514ZM70.0474 13.143C69.5534 12.6743 68.8504 12.06 67.9384 11.3V18.311H65.9814V11.699C65.3481 12.383 64.6451 13.0163 63.8724 13.599L63.2834 11.357C64.2081 10.6097 64.9934 9.84967 65.6394 9.07701C66.2981 8.30434 66.9314 7.41134 67.5394 6.39801H63.6824V4.46H69.6864V6.436C69.1924 7.37334 68.6731 8.24101 68.1284 9.03901C68.6478 9.45701 69.2304 9.932 69.8764 10.464C70.5224 10.9833 70.9848 11.3697 71.2634 11.623L70.0474 13.143Z" fill="black"/>
<path d="M6.59812 42.437C5.33145 42.437 4.21045 42.1393 3.23512 41.544C2.25979 40.9487 1.50612 40.1317 0.974121 39.093L3.14012 37.991C3.48212 38.7003 3.95079 39.2323 4.54612 39.587C5.14145 39.9417 5.83179 40.119 6.61712 40.119C7.45312 40.119 8.13079 39.9417 8.65012 39.587C9.16945 39.2197 9.42912 38.751 9.42912 38.181C9.42912 37.7883 9.32779 37.459 9.12512 37.193C8.92245 36.9143 8.59312 36.6737 8.13712 36.471C7.68112 36.2557 7.04145 36.0277 6.21812 35.787C5.23012 35.5083 4.41312 35.2297 3.76712 34.951C3.13379 34.6597 2.58279 34.229 2.11412 33.659C1.65812 33.089 1.43012 32.329 1.43012 31.379C1.43012 30.543 1.65812 29.7957 2.11412 29.137C2.57012 28.4783 3.19712 27.9653 3.99512 27.598C4.80579 27.218 5.71779 27.028 6.73112 27.028C9.12512 27.028 10.8668 28.0603 11.9561 30.125L9.86612 31.284C9.11879 29.992 8.06112 29.346 6.69312 29.346C5.93312 29.346 5.28712 29.5297 4.75512 29.897C4.23579 30.2643 3.97612 30.7077 3.97612 31.227C3.97612 31.683 4.09645 32.0503 4.33712 32.329C4.59045 32.6077 4.93879 32.842 5.38212 33.032C5.82545 33.2093 6.43979 33.4057 7.22512 33.621C8.18779 33.887 8.99212 34.172 9.63812 34.476C10.2968 34.7673 10.8541 35.2043 11.3101 35.787C11.7661 36.3697 11.9941 37.1233 11.9941 38.048C11.9941 38.9347 11.7661 39.7073 11.3101 40.366C10.8668 41.0247 10.2335 41.5377 9.41012 41.905C8.59945 42.2597 7.66212 42.437 6.59812 42.437Z" fill="black"/>
<path d="M18.0847 42.437C17.0967 42.437 16.2923 42.1647 15.6717 41.62C15.0637 41.0753 14.7597 40.3343 14.7597 39.397C14.7597 38.257 15.2157 37.3703 16.1277 36.737C17.0523 36.1037 18.3317 35.787 19.9657 35.787H21.1817V35.255C21.1817 34.6343 20.998 34.1467 20.6307 33.792C20.276 33.4373 19.7883 33.26 19.1677 33.26C18.357 33.26 17.5717 33.64 16.8117 34.4L15.2917 33.07C16.4063 31.816 17.7807 31.189 19.4147 31.189C20.694 31.189 21.7137 31.5437 22.4737 32.253C23.2337 32.9623 23.6137 33.9123 23.6137 35.103V42.171H21.1817V40.803H21.0677C20.8143 41.3223 20.4153 41.7213 19.8707 42C19.3387 42.2913 18.7433 42.437 18.0847 42.437ZM18.7497 40.385C19.3703 40.385 19.9277 40.2077 20.4217 39.853C20.9283 39.4857 21.1817 38.979 21.1817 38.333V37.839H20.2697C19.2437 37.839 18.4773 37.953 17.9707 38.181C17.4767 38.409 17.2297 38.7637 17.2297 39.245C17.2297 39.587 17.3627 39.8657 17.6287 40.081C17.9073 40.2837 18.281 40.385 18.7497 40.385Z" fill="black"/>
<path d="M27.2128 42.171V31.455H29.6258V32.899H29.7208C30.0502 32.367 30.4935 31.949 31.0508 31.645C31.6082 31.341 32.2098 31.189 32.8558 31.189C33.9832 31.189 34.8572 31.55 35.4778 32.272C36.1112 32.9813 36.4278 33.982 36.4278 35.274V42.171H34.0148V35.749C34.0148 35.065 33.8248 34.514 33.4448 34.096C33.0775 33.6653 32.5962 33.45 32.0008 33.45C31.2915 33.45 30.7152 33.678 30.2718 34.134C29.8412 34.59 29.6258 35.198 29.6258 35.958V42.171H27.2128Z" fill="black"/>
<path d="M49.374 35.977C49.374 36.6103 49.3106 37.174 49.184 37.668H42.059C42.1603 38.5167 42.4453 39.1817 42.914 39.663C43.3826 40.1317 44.0096 40.366 44.795 40.366C45.289 40.366 45.7386 40.2393 46.144 39.986C46.562 39.72 46.904 39.3463 47.17 38.865L49.127 39.872C48.7216 40.6827 48.1516 41.316 47.417 41.772C46.6823 42.2153 45.8083 42.437 44.795 42.437C43.731 42.437 42.7999 42.2153 42.0019 41.772C41.2166 41.316 40.6086 40.67 40.178 39.834C39.76 38.9853 39.5509 37.9973 39.5509 36.87C39.5509 35.7173 39.7536 34.7167 40.159 33.868C40.577 33.0067 41.1659 32.348 41.9259 31.892C42.6859 31.4233 43.5789 31.189 44.6049 31.189C45.5676 31.189 46.41 31.3853 47.132 31.778C47.854 32.1707 48.405 32.728 48.785 33.45C49.1776 34.172 49.374 35.0143 49.374 35.977ZM46.9039 35.616C46.9039 34.894 46.695 34.3177 46.277 33.887C45.859 33.4563 45.3016 33.241 44.6049 33.241C43.9463 33.241 43.408 33.45 42.99 33.868C42.572 34.2733 42.287 34.856 42.135 35.616H46.9039Z" fill="black"/>
<path d="M55.5049 28.092C55.5049 28.5607 55.3655 28.928 55.0869 29.194C54.8209 29.46 54.4535 29.593 53.9849 29.593C53.5289 29.593 53.1679 29.46 52.9019 29.194C52.6485 28.928 52.5219 28.5607 52.5219 28.092C52.5219 27.636 52.6485 27.275 52.9019 27.009C53.1679 26.7303 53.5289 26.591 53.9849 26.591C54.4535 26.591 54.8209 26.7303 55.0869 27.009C55.3655 27.275 55.5049 27.636 55.5049 28.092ZM55.2199 31.455V42.171H52.8069V31.455H55.2199Z" fill="black"/>
<path d="M63.7185 47.073C62.6165 47.073 61.6538 46.8387 60.8305 46.37C60.0072 45.914 59.3865 45.2743 58.9685 44.451L61.0015 43.425C61.2675 43.9063 61.6412 44.28 62.1225 44.546C62.6165 44.8247 63.1295 44.964 63.6615 44.964C64.4722 44.964 65.0992 44.717 65.5425 44.223C65.9985 43.729 66.2265 43.0387 66.2265 42.152V40.689H66.1125C65.7958 41.221 65.3842 41.6327 64.8775 41.924C64.3708 42.2153 63.8072 42.361 63.1865 42.361C62.2998 42.361 61.5145 42.1267 60.8305 41.658C60.1465 41.1767 59.6145 40.5053 59.2345 39.644C58.8545 38.77 58.6645 37.7757 58.6645 36.661C58.6645 35.5717 58.8482 34.6153 59.2155 33.792C59.5955 32.956 60.1212 32.3163 60.7925 31.873C61.4638 31.417 62.2365 31.189 63.1105 31.189C63.7185 31.189 64.2822 31.3347 64.8015 31.626C65.3208 31.9173 65.7578 32.3227 66.1125 32.842H66.2265V31.455H68.6585V41.772C68.6585 43.4313 68.2278 44.7297 67.3665 45.667C66.5052 46.6043 65.2892 47.073 63.7185 47.073ZM63.7945 40.043C64.5545 40.043 65.1625 39.7453 65.6185 39.15C66.0745 38.542 66.3025 37.7503 66.3025 36.775C66.3025 35.7997 66.0618 35.008 65.5805 34.4C65.1118 33.792 64.4912 33.488 63.7185 33.488C62.9585 33.488 62.3378 33.792 61.8565 34.4C61.3752 35.008 61.1345 35.7997 61.1345 36.775C61.1345 37.7503 61.3815 38.542 61.8755 39.15C62.3695 39.7453 63.0092 40.043 63.7945 40.043Z" fill="black"/>
<path d="M81.7088 35.977C81.7088 36.6103 81.6455 37.174 81.5188 37.668H74.3938C74.4952 38.5167 74.7802 39.1817 75.2488 39.663C75.7175 40.1317 76.3445 40.366 77.1298 40.366C77.6238 40.366 78.0735 40.2393 78.4788 39.986C78.8968 39.72 79.2388 39.3463 79.5048 38.865L81.4618 39.872C81.0565 40.6827 80.4865 41.316 79.7518 41.772C79.0172 42.2153 78.1432 42.437 77.1298 42.437C76.0658 42.437 75.1348 42.2153 74.3368 41.772C73.5515 41.316 72.9435 40.67 72.5128 39.834C72.0948 38.9853 71.8858 37.9973 71.8858 36.87C71.8858 35.7173 72.0885 34.7167 72.4938 33.868C72.9118 33.0067 73.5008 32.348 74.2608 31.892C75.0208 31.4233 75.9138 31.189 76.9398 31.189C77.9025 31.189 78.7448 31.3853 79.4668 31.778C80.1888 32.1707 80.7398 32.728 81.1198 33.45C81.5125 34.172 81.7088 35.0143 81.7088 35.977ZM79.2388 35.616C79.2388 34.894 79.0298 34.3177 78.6118 33.887C78.1938 33.4563 77.6365 33.241 76.9398 33.241C76.2812 33.241 75.7428 33.45 75.3248 33.868C74.9068 34.2733 74.6218 34.856 74.4698 35.616H79.2388Z" fill="black"/>
</svg>
